M48
;DRILL file {KiCad 4.0.7} date 12/19/17 23:32:28
;FORMAT={-:-/ absolute / metric / decimal}
FMAT,2
METRIC,TZ
T1C0.400
T2C0.900
T3C2.300
T4C3.700
%
G90
G05
M71
T1
X134.Y-98.
X134.Y-103.
X135.Y-93.
X135.Y-107.
X140.Y-108.
X145.Y-92.
X145.Y-108.
X155.Y-92.
X155.Y-108.
X160.Y-92.
X160.Y-108.
X165.Y-93.
X165.Y-107.
X166.Y-98.
X166.Y-103.
T2
X148.25Y-96.5
X148.25Y-99.
X148.25Y-101.
X148.25Y-103.5
T3
X150.96Y-93.43
X150.96Y-106.57
T4
X140.25Y-100.
X159.75Y-100.
T0
M30
