G04 #@! TF.FileFunction,Legend,Top*
%FSLAX46Y46*%
G04 Gerber Fmt 4.6, Leading zero omitted, Abs format (unit mm)*
G04 Created by KiCad (PCBNEW 4.0.7) date 12/19/17 23:32:23*
%MOMM*%
%LPD*%
G01*
G04 APERTURE LIST*
%ADD10C,0.100000*%
%ADD11C,0.150000*%
%ADD12C,0.300000*%
%ADD13C,0.120000*%
G04 APERTURE END LIST*
D10*
D11*
X135785714Y-107166667D02*
X136261905Y-107166667D01*
X135690476Y-107452381D02*
X136023809Y-106452381D01*
X136357143Y-107452381D01*
X137261905Y-107452381D02*
X136928571Y-106976190D01*
X136690476Y-107452381D02*
X136690476Y-106452381D01*
X137071429Y-106452381D01*
X137166667Y-106500000D01*
X137214286Y-106547619D01*
X137261905Y-106642857D01*
X137261905Y-106785714D01*
X137214286Y-106880952D01*
X137166667Y-106928571D01*
X137071429Y-106976190D01*
X136690476Y-106976190D01*
X137880952Y-106452381D02*
X137976191Y-106452381D01*
X138071429Y-106500000D01*
X138119048Y-106547619D01*
X138166667Y-106642857D01*
X138214286Y-106833333D01*
X138214286Y-107071429D01*
X138166667Y-107261905D01*
X138119048Y-107357143D01*
X138071429Y-107404762D01*
X137976191Y-107452381D01*
X137880952Y-107452381D01*
X137785714Y-107404762D01*
X137738095Y-107357143D01*
X137690476Y-107261905D01*
X137642857Y-107071429D01*
X137642857Y-106833333D01*
X137690476Y-106642857D01*
X137738095Y-106547619D01*
X137785714Y-106500000D01*
X137880952Y-106452381D01*
X138833333Y-106452381D02*
X138928572Y-106452381D01*
X139023810Y-106500000D01*
X139071429Y-106547619D01*
X139119048Y-106642857D01*
X139166667Y-106833333D01*
X139166667Y-107071429D01*
X139119048Y-107261905D01*
X139071429Y-107357143D01*
X139023810Y-107404762D01*
X138928572Y-107452381D01*
X138833333Y-107452381D01*
X138738095Y-107404762D01*
X138690476Y-107357143D01*
X138642857Y-107261905D01*
X138595238Y-107071429D01*
X138595238Y-106833333D01*
X138642857Y-106642857D01*
X138690476Y-106547619D01*
X138738095Y-106500000D01*
X138833333Y-106452381D01*
X139785714Y-106452381D02*
X139880953Y-106452381D01*
X139976191Y-106500000D01*
X140023810Y-106547619D01*
X140071429Y-106642857D01*
X140119048Y-106833333D01*
X140119048Y-107071429D01*
X140071429Y-107261905D01*
X140023810Y-107357143D01*
X139976191Y-107404762D01*
X139880953Y-107452381D01*
X139785714Y-107452381D01*
X139690476Y-107404762D01*
X139642857Y-107357143D01*
X139595238Y-107261905D01*
X139547619Y-107071429D01*
X139547619Y-106833333D01*
X139595238Y-106642857D01*
X139642857Y-106547619D01*
X139690476Y-106500000D01*
X139785714Y-106452381D01*
X141071429Y-107452381D02*
X140500000Y-107452381D01*
X140785714Y-107452381D02*
X140785714Y-106452381D01*
X140690476Y-106595238D01*
X140595238Y-106690476D01*
X140500000Y-106738095D01*
X141500000Y-107071429D02*
X142261905Y-107071429D01*
X143309524Y-107452381D02*
X142976190Y-106976190D01*
X142738095Y-107452381D02*
X142738095Y-106452381D01*
X143119048Y-106452381D01*
X143214286Y-106500000D01*
X143261905Y-106547619D01*
X143309524Y-106642857D01*
X143309524Y-106785714D01*
X143261905Y-106880952D01*
X143214286Y-106928571D01*
X143119048Y-106976190D01*
X142738095Y-106976190D01*
X144261905Y-107452381D02*
X143690476Y-107452381D01*
X143976190Y-107452381D02*
X143976190Y-106452381D01*
X143880952Y-106595238D01*
X143785714Y-106690476D01*
X143690476Y-106738095D01*
X145023810Y-106928571D02*
X145166667Y-106976190D01*
X145214286Y-107023810D01*
X145261905Y-107119048D01*
X145261905Y-107261905D01*
X145214286Y-107357143D01*
X145166667Y-107404762D01*
X145071429Y-107452381D01*
X144690476Y-107452381D01*
X144690476Y-106452381D01*
X145023810Y-106452381D01*
X145119048Y-106500000D01*
X145166667Y-106547619D01*
X145214286Y-106642857D01*
X145214286Y-106738095D01*
X145166667Y-106833333D01*
X145119048Y-106880952D01*
X145023810Y-106928571D01*
X144690476Y-106928571D01*
X146214286Y-107452381D02*
X145642857Y-107452381D01*
X145928571Y-107452381D02*
X145928571Y-106452381D01*
X145833333Y-106595238D01*
X145738095Y-106690476D01*
X145642857Y-106738095D01*
X154666667Y-107309525D02*
X154666667Y-106833334D01*
X154952381Y-107404763D02*
X153952381Y-107071430D01*
X154952381Y-106738096D01*
X154952381Y-105833334D02*
X154476190Y-106166668D01*
X154952381Y-106404763D02*
X153952381Y-106404763D01*
X153952381Y-106023810D01*
X154000000Y-105928572D01*
X154047619Y-105880953D01*
X154142857Y-105833334D01*
X154285714Y-105833334D01*
X154380952Y-105880953D01*
X154428571Y-105928572D01*
X154476190Y-106023810D01*
X154476190Y-106404763D01*
X153952381Y-105547620D02*
X154952381Y-105214287D01*
X153952381Y-104880953D01*
X154666667Y-104595239D02*
X154666667Y-104119048D01*
X154952381Y-104690477D02*
X153952381Y-104357144D01*
X154952381Y-104023810D01*
X154952381Y-103119048D02*
X154476190Y-103452382D01*
X154952381Y-103690477D02*
X153952381Y-103690477D01*
X153952381Y-103309524D01*
X154000000Y-103214286D01*
X154047619Y-103166667D01*
X154142857Y-103119048D01*
X154285714Y-103119048D01*
X154380952Y-103166667D01*
X154428571Y-103214286D01*
X154476190Y-103309524D01*
X154476190Y-103690477D01*
X153952381Y-102071429D02*
X153952381Y-101500000D01*
X154952381Y-101785715D02*
X153952381Y-101785715D01*
X154904762Y-100785714D02*
X154952381Y-100880952D01*
X154952381Y-101071429D01*
X154904762Y-101166667D01*
X154809524Y-101214286D01*
X154428571Y-101214286D01*
X154333333Y-101166667D01*
X154285714Y-101071429D01*
X154285714Y-100880952D01*
X154333333Y-100785714D01*
X154428571Y-100738095D01*
X154523810Y-100738095D01*
X154619048Y-101214286D01*
X154904762Y-99880952D02*
X154952381Y-99976190D01*
X154952381Y-100166667D01*
X154904762Y-100261905D01*
X154857143Y-100309524D01*
X154761905Y-100357143D01*
X154476190Y-100357143D01*
X154380952Y-100309524D01*
X154333333Y-100261905D01*
X154285714Y-100166667D01*
X154285714Y-99976190D01*
X154333333Y-99880952D01*
X154952381Y-99452381D02*
X153952381Y-99452381D01*
X154952381Y-99023809D02*
X154428571Y-99023809D01*
X154333333Y-99071428D01*
X154285714Y-99166666D01*
X154285714Y-99309524D01*
X154333333Y-99404762D01*
X154380952Y-99452381D01*
X154285714Y-98547619D02*
X154952381Y-98547619D01*
X154380952Y-98547619D02*
X154333333Y-98500000D01*
X154285714Y-98404762D01*
X154285714Y-98261904D01*
X154333333Y-98166666D01*
X154428571Y-98119047D01*
X154952381Y-98119047D01*
X154952381Y-97500000D02*
X154904762Y-97595238D01*
X154857143Y-97642857D01*
X154761905Y-97690476D01*
X154476190Y-97690476D01*
X154380952Y-97642857D01*
X154333333Y-97595238D01*
X154285714Y-97500000D01*
X154285714Y-97357142D01*
X154333333Y-97261904D01*
X154380952Y-97214285D01*
X154476190Y-97166666D01*
X154761905Y-97166666D01*
X154857143Y-97214285D01*
X154904762Y-97261904D01*
X154952381Y-97357142D01*
X154952381Y-97500000D01*
X154952381Y-96595238D02*
X154904762Y-96690476D01*
X154809524Y-96738095D01*
X153952381Y-96738095D01*
X154952381Y-96071428D02*
X154904762Y-96166666D01*
X154857143Y-96214285D01*
X154761905Y-96261904D01*
X154476190Y-96261904D01*
X154380952Y-96214285D01*
X154333333Y-96166666D01*
X154285714Y-96071428D01*
X154285714Y-95928570D01*
X154333333Y-95833332D01*
X154380952Y-95785713D01*
X154476190Y-95738094D01*
X154761905Y-95738094D01*
X154857143Y-95785713D01*
X154904762Y-95833332D01*
X154952381Y-95928570D01*
X154952381Y-96071428D01*
X154285714Y-94880951D02*
X155095238Y-94880951D01*
X155190476Y-94928570D01*
X155238095Y-94976189D01*
X155285714Y-95071428D01*
X155285714Y-95214285D01*
X155238095Y-95309523D01*
X154904762Y-94880951D02*
X154952381Y-94976189D01*
X154952381Y-95166666D01*
X154904762Y-95261904D01*
X154857143Y-95309523D01*
X154761905Y-95357142D01*
X154476190Y-95357142D01*
X154380952Y-95309523D01*
X154333333Y-95261904D01*
X154285714Y-95166666D01*
X154285714Y-94976189D01*
X154333333Y-94880951D01*
X154952381Y-94404761D02*
X154285714Y-94404761D01*
X153952381Y-94404761D02*
X154000000Y-94452380D01*
X154047619Y-94404761D01*
X154000000Y-94357142D01*
X153952381Y-94404761D01*
X154047619Y-94404761D01*
X154904762Y-93547618D02*
X154952381Y-93642856D01*
X154952381Y-93833333D01*
X154904762Y-93928571D01*
X154809524Y-93976190D01*
X154428571Y-93976190D01*
X154333333Y-93928571D01*
X154285714Y-93833333D01*
X154285714Y-93642856D01*
X154333333Y-93547618D01*
X154428571Y-93499999D01*
X154523810Y-93499999D01*
X154619048Y-93976190D01*
X154904762Y-93119047D02*
X154952381Y-93023809D01*
X154952381Y-92833333D01*
X154904762Y-92738094D01*
X154809524Y-92690475D01*
X154761905Y-92690475D01*
X154666667Y-92738094D01*
X154619048Y-92833333D01*
X154619048Y-92976190D01*
X154571429Y-93071428D01*
X154476190Y-93119047D01*
X154428571Y-93119047D01*
X154333333Y-93071428D01*
X154285714Y-92976190D01*
X154285714Y-92833333D01*
X154333333Y-92738094D01*
D12*
X163678572Y-100107143D02*
X164821429Y-100107143D01*
X135178572Y-100107143D02*
X136321429Y-100107143D01*
X135750000Y-100678571D02*
X135750000Y-99535714D01*
D13*
X147110000Y-92450000D02*
X149440000Y-92450000D01*
X147110000Y-107440000D02*
X149230000Y-107440000D01*
X147110000Y-92450000D02*
X147110000Y-107440000D01*
X152750000Y-92500000D02*
X152750000Y-107490000D01*
D11*
X149702381Y-100333333D02*
X150416667Y-100333333D01*
X150559524Y-100380953D01*
X150654762Y-100476191D01*
X150702381Y-100619048D01*
X150702381Y-100714286D01*
X149797619Y-99904762D02*
X149750000Y-99857143D01*
X149702381Y-99761905D01*
X149702381Y-99523809D01*
X149750000Y-99428571D01*
X149797619Y-99380952D01*
X149892857Y-99333333D01*
X149988095Y-99333333D01*
X150130952Y-99380952D01*
X150702381Y-99952381D01*
X150702381Y-99333333D01*
M02*
